<?xml version="1.0" encoding="UTF-8"?><svg id="Layer_1" xmlns="http://www.w3.org/2000/svg" viewBox="0 0 278.46 111.44"><defs><style>.cls-1{fill:#fff;}</style></defs><path class="cls-1" d="m0,101.45h0c0,7.58,8.11,12.39,14.76,8.76l11.31-6.17c3.21-1.75,5.2-5.11,5.2-8.76v-16.82l-26.07,14.22c-3.21,1.75-5.2,5.11-5.2,8.76Z"/><path class="cls-1" d="m0,55.96h0c0,7.58,8.11,12.39,14.76,8.76l16.51-9v-22.74l-26.07,14.22c-3.21,1.75-5.2,5.11-5.2,8.76Z"/><path class="cls-1" d="m31.27,55.72v22.74l26.07-14.22c3.21-1.75,5.2-5.11,5.2-8.76h0c0-7.58-8.11-12.39-14.76-8.76l-16.51,9Z"/><path class="cls-1" d="m31.27,16.16v16.82l26.07-14.22c3.21-1.75,5.2-5.11,5.2-8.76h0c0-7.58-8.11-12.39-14.76-8.76l-11.31,6.17c-3.21,1.75-5.2,5.11-5.2,8.76Z"/><g><path class="cls-1" d="m93.81,37.8h27.01v8.89h-15.49v8.5h12.36v8.44h-12.36v14.15h-11.52v-39.99Z"/><path class="cls-1" d="m122.44,63.53v-.45c0-9.4,6.99-15.32,16.05-15.32s15.94,5.76,15.94,15.04v.45c0,9.51-6.99,15.21-15.99,15.21s-15.99-5.48-15.99-14.93Zm21.81-.17v-.45c0-4.92-1.96-7.66-5.76-7.66s-5.82,2.63-5.82,7.55v.45c0,5.03,1.96,7.77,5.82,7.77s5.76-2.8,5.76-7.66Z"/><path class="cls-1" d="m158.79,48.54h10.01v5.82c1.85-4.36,4.92-6.26,9.45-6.21v9.34c-6.1-.17-9.45,1.73-9.45,6.43v13.87h-10.01v-29.25Z"/><path class="cls-1" d="m182.72,48.54h10.01v4.47c1.57-2.8,4.64-5.26,9.17-5.26,3.86,0,6.54,1.68,7.94,4.87,2.52-3.41,5.98-4.87,9.67-4.87,5.54,0,9.56,3.58,9.56,10.9v19.13h-10.01v-17.45c0-2.96-1.45-4.42-3.75-4.42-2.68,0-4.47,1.73-4.47,4.92v16.94h-9.9v-17.45c0-2.96-1.45-4.42-3.75-4.42-2.68,0-4.47,1.73-4.47,4.92v16.94h-10.01v-29.25Z"/><path class="cls-1" d="m233.22,63.53v-.45c0-9.4,6.99-15.32,15.83-15.32,8,0,14.88,4.59,14.88,15.1v2.63h-20.58c.28,3.86,2.52,6.1,6.1,6.1,3.3,0,4.7-1.51,5.09-3.47h9.39c-.89,6.6-5.98,10.35-14.82,10.35s-15.88-5.37-15.88-14.93Zm20.97-3.69c-.17-3.52-1.9-5.48-5.14-5.48-3.02,0-5.09,1.96-5.59,5.48h10.74Z"/><path class="cls-1" d="m268.5,35.68h9.95v42.11h-9.95v-42.11Z"/></g></svg>